<?xml version="1.0" encoding="UTF-8" standalone="no"?>
<!-- Generator: Adobe Illustrator 19.0.0, SVG Export Plug-In . SVG Version: 6.00 Build 0)  -->

<svg
   version="1.1"
   id="Layer_1"
   x="0px"
   y="0px"
   viewBox="0 0 49.999997 53.999995"
   xml:space="preserve"
   sodipodi:docname="architecture.svg"
   width="50"
   height="54"
   inkscape:version="1.2.1 (9c6d41e410, 2022-07-14)"
   xmlns:inkscape="http://www.inkscape.org/namespaces/inkscape"
   xmlns:sodipodi="http://sodipodi.sourceforge.net/DTD/sodipodi-0.dtd"
   xmlns="http://www.w3.org/2000/svg"
   xmlns:svg="http://www.w3.org/2000/svg"><defs
   id="defs77" /><sodipodi:namedview
   id="namedview75"
   pagecolor="#ffffff"
   bordercolor="#000000"
   borderopacity="0.25"
   inkscape:showpageshadow="2"
   inkscape:pageopacity="0.0"
   inkscape:pagecheckerboard="0"
   inkscape:deskcolor="#d1d1d1"
   showgrid="false"
   inkscape:zoom="2.868862"
   inkscape:cx="133.85098"
   inkscape:cy="147.79379"
   inkscape:window-width="1920"
   inkscape:window-height="1027"
   inkscape:window-x="-8"
   inkscape:window-y="-8"
   inkscape:window-maximized="1"
   inkscape:current-layer="Layer_1" />
<g
   id="g42"
   transform="matrix(0.18749977,0,0,0.18290267,-2.6786216,0)">
	<g
   id="g40">
		<g
   id="g38">
			<path
   d="m 244.352,239.382 -6.91,-6.557 c -0.348,0.367 -0.729,0.695 -1.081,1.057 L 196.747,104.239 c 5.005,-6.448 8.014,-14.514 8.014,-23.286 0,-21.005 -17.09,-38.095 -38.095,-38.095 V 25.372 c 1.267,0.195 2.524,0.329 3.79,0.562 l 1.738,-9.367 C 170.237,16.205 168.284,15.972 166.327,15.7 164.737,6.795 156.975,0 147.617,0 138.259,0 130.5,6.796 128.91,15.701 c -1.957,0.276 -3.91,0.505 -5.867,0.867 l 1.738,9.367 c 1.267,-0.233 2.524,-0.367 3.79,-0.562 v 17.486 c -21.005,0 -38.095,17.09 -38.095,38.095 0,8.771 3.01,16.838 8.01,23.281 L 58.871,233.877 c -0.352,-0.362 -0.733,-0.69 -1.081,-1.057 l -6.91,6.557 c 1.557,1.638 3.214,3.19 4.857,4.757 l -7.914,25.905 -0.205,25.2 27.91,-20.933 3.757,-12.295 c 1.014,0.61 2.005,1.281 3.024,1.852 l 4.662,-8.305 c -1.624,-0.914 -3.214,-1.952 -4.819,-2.952 l 17.533,-57.367 h 95.862 l 17.529,57.371 c -1.605,1 -3.19,2.038 -4.819,2.952 l 4.662,8.305 c 1.024,-0.576 2.01,-1.248 3.024,-1.852 l 3.757,12.295 27.919,20.929 V 270.72 l -8.124,-26.581 c 1.643,-1.567 3.305,-3.119 4.857,-4.757 z m -77.685,-187 c 15.757,0 28.571,12.814 28.571,28.571 0,9.171 -4.362,17.329 -11.1,22.557 -2.79,-9.433 -9.138,-17.333 -17.49,-22.176 0,-0.129 0.019,-0.252 0.019,-0.381 0,-10.276 -4.11,-19.595 -10.748,-26.457 3.324,-1.352 6.948,-2.114 10.748,-2.114 z m -1.581,39.348 c 5.181,4.019 8.943,9.767 10.41,16.381 -2.782,0.909 -5.744,1.414 -8.829,1.414 -3.8,0 -7.424,-0.762 -10.748,-2.114 4.219,-4.362 7.405,-9.714 9.167,-15.681 z m -17.467,10.461 c -4.362,-3.919 -7.524,-9.138 -8.833,-15.062 2.785,-0.909 5.747,-1.414 8.833,-1.414 3.086,0 6.048,0.505 8.833,1.414 -1.31,5.924 -4.471,11.143 -8.833,15.062 z m 0,-26 c -3.205,0 -6.3,0.443 -9.276,1.19 0.876,-6.985 4.286,-13.18 9.276,-17.666 4.99,4.481 8.4,10.676 9.276,17.662 -2.976,-0.743 -6.071,-1.186 -9.276,-1.186 z m -8.3,31.22 c -3.324,1.352 -6.948,2.114 -10.748,2.114 -3.086,0 -6.048,-0.505 -8.833,-1.414 1.467,-6.614 5.229,-12.362 10.41,-16.381 1.766,5.966 4.952,11.319 9.171,15.681 z m -10.748,11.637 c 6.943,0 13.438,-1.895 19.048,-5.152 5.61,3.257 12.105,5.152 19.048,5.152 3.205,0 6.3,-0.443 9.276,-1.19 -1.767,14.072 -13.781,25 -28.324,25 -14.543,0 -26.557,-10.929 -28.324,-25 2.976,0.748 6.071,1.19 9.276,1.19 z m 9.524,-99.999 c 0,-5.252 4.271,-9.524 9.524,-9.524 5.253,0 9.524,4.271 9.524,9.524 v 25.062 c -3.381,0.876 -6.576,2.19 -9.524,3.9 -2.948,-1.714 -6.143,-3.024 -9.524,-3.9 z m -9.524,33.333 c 3.8,0 7.424,0.762 10.748,2.114 -6.638,6.862 -10.748,16.181 -10.748,26.457 0,0.129 0.019,0.252 0.019,0.381 -8.352,4.843 -14.7,12.743 -17.49,22.176 C 104.362,98.281 100,90.124 100,80.953 100,65.196 112.814,52.382 128.571,52.382 Z m -61.242,216.167 -10.186,7.642 v -4.052 l 49.024,-160.448 c 1.086,0.795 2.21,1.533 3.376,2.21 0,0.133 -0.019,0.257 -0.019,0.386 0,3.79 0.576,7.443 1.61,10.9 z m 35.271,-82.834 14.776,-48.357 c 6.967,9.11 17.914,15.024 30.243,15.024 12.329,0 23.276,-5.914 30.243,-15.024 l 14.776,48.357 z m 135.496,90.476 v 0 l -10.187,-7.638 -43.804,-143.362 c 1.033,-3.462 1.61,-7.114 1.61,-10.905 0,-0.129 -0.019,-0.252 -0.019,-0.381 1.167,-0.676 2.29,-1.419 3.376,-2.21 l 49.024,160.443 z"
   id="path2" />
			<path
   d="m 208.3,28.882 c -5.633,-2.876 -11.529,-5.381 -17.514,-7.433 l -3.081,9.014 c 5.557,1.9 11.029,4.224 16.262,6.9 z"
   id="path4" />
			<path
   d="M 262.886,80.568 C 259.7,75.111 256.091,69.82 252.153,64.854 l -7.462,5.914 c 3.662,4.619 7.014,9.529 9.971,14.595 z"
   id="path6" />
			<path
   d="m 239.29,50.815 c -4.605,-4.357 -9.552,-8.419 -14.714,-12.067 l -5.5,7.776 c 4.79,3.39 9.39,7.162 13.667,11.21 z"
   id="path8" />
			<path
   d="m 267.876,118.053 9.248,-2.262 c -1.505,-6.157 -3.476,-12.252 -5.852,-18.133 l -8.829,3.571 c 2.209,5.458 4.038,11.12 5.433,16.824 z"
   id="path10" />
			<path
   d="m 280.319,134.558 -9.476,0.919 c 0.386,4.019 0.586,8.1 0.586,12.143 0,1.857 -0.038,3.7 -0.119,5.538 l 9.514,0.419 c 0.086,-1.976 0.129,-3.962 0.129,-5.957 -10e-4,-4.348 -0.21,-8.743 -0.634,-13.062 z"
   id="path12" />
			<path
   d="m 264.767,187.801 9.01,3.086 c 2.057,-5.99 3.69,-12.186 4.867,-18.405 l -9.362,-1.767 c -1.092,5.776 -2.611,11.524 -4.515,17.086 z"
   id="path14" />
			<path
   d="m 248.671,219.172 7.771,5.505 c 3.671,-5.176 6.995,-10.648 9.876,-16.267 l -8.471,-4.352 c -2.68,5.224 -5.766,10.31 -9.176,15.114 z"
   id="path16" />
			<path
   d="m 174.533,268.491 2.067,9.3 c 6.348,-1.414 12.624,-3.3 18.662,-5.619 l -3.414,-8.89 c -5.6,2.148 -11.424,3.9 -17.315,5.209 z"
   id="path18" />
			<path
   d="m 147.614,271.43 c -3.029,-0.071 -6.048,-0.105 -9.067,-0.324 l -0.695,9.495 c 3.19,0.238 6.414,0.352 9.581,0.352 3.448,0.062 6.643,-0.11 9.89,-0.348 l -0.686,-9.495 c -2.961,0.215 -5.999,0.32 -9.023,0.32 z"
   id="path20" />
			<path
   d="m 99.924,272.153 c 6.067,2.329 12.343,4.219 18.657,5.619 l 2.062,-9.3 c -5.857,-1.295 -11.681,-3.052 -17.305,-5.21 z"
   id="path22" />
			<path
   d="m 107.681,30.415 -3.071,-9.014 c -5.995,2.038 -11.9,4.533 -17.543,7.419 l 4.333,8.481 c 5.238,-2.676 10.714,-4.99 16.281,-6.886 z"
   id="path24" />
			<path
   d="m 50.633,70.672 -7.457,-5.924 c -3.948,4.971 -7.567,10.257 -10.748,15.705 l 8.224,4.81 c 2.953,-5.067 6.315,-9.972 9.981,-14.591 z"
   id="path26" />
			<path
   d="m 28.857,208.287 c 2.881,5.629 6.2,11.1 9.862,16.281 l 7.776,-5.505 c -3.405,-4.805 -6.486,-9.89 -9.157,-15.119 z"
   id="path28" />
			<path
   d="m 25.933,170.582 -9.362,1.757 c 1.171,6.233 2.8,12.424 4.848,18.414 l 9.014,-3.076 c -1.904,-5.557 -3.419,-11.309 -4.5,-17.095 z"
   id="path30" />
			<path
   d="m 23.81,147.615 c 0,-4.09 0.2,-8.229 0.6,-12.281 l -9.476,-0.938 c -0.433,4.371 -0.648,8.819 -0.648,13.224 0,1.943 0.043,3.876 0.124,5.81 l 9.514,-0.419 c -0.076,-1.791 -0.114,-3.586 -0.114,-5.396 z"
   id="path32" />
			<path
   d="m 76.271,46.444 -5.495,-7.776 c -5.162,3.643 -10.119,7.695 -14.729,12.048 l 6.538,6.929 c 4.286,-4.044 8.891,-7.811 13.686,-11.201 z"
   id="path34" />
			<path
   d="m 32.843,101.106 -8.824,-3.581 c -2.376,5.857 -4.352,11.952 -5.871,18.11 l 9.243,2.281 c 1.414,-5.71 3.247,-11.367 5.452,-16.81 z"
   id="path36" />
		</g>
	</g>
</g>
<g
   id="g44">
</g>
<g
   id="g46">
</g>
<g
   id="g48">
</g>
<g
   id="g50">
</g>
<g
   id="g52">
</g>
<g
   id="g54">
</g>
<g
   id="g56">
</g>
<g
   id="g58">
</g>
<g
   id="g60">
</g>
<g
   id="g62">
</g>
<g
   id="g64">
</g>
<g
   id="g66">
</g>
<g
   id="g68">
</g>
<g
   id="g70">
</g>
<g
   id="g72">
</g>
</svg>
