<?xml version="1.0" encoding="UTF-8" standalone="no"?>
<svg
   width="54"
   height="54"
   viewBox="0 0 54 54"
   enable-background="new 0 0 512 512"
   id="Layer_1"
   version="1.1"
   xml:space="preserve"
   sodipodi:docname="design.svg"
   inkscape:version="1.2.1 (9c6d41e410, 2022-07-14)"
   xmlns:inkscape="http://www.inkscape.org/namespaces/inkscape"
   xmlns:sodipodi="http://sodipodi.sourceforge.net/DTD/sodipodi-0.dtd"
   xmlns="http://www.w3.org/2000/svg"
   xmlns:svg="http://www.w3.org/2000/svg"><defs
     id="defs11" /><sodipodi:namedview
     id="namedview9"
     pagecolor="#ffffff"
     bordercolor="#000000"
     borderopacity="0.25"
     inkscape:showpageshadow="2"
     inkscape:pageopacity="0.0"
     inkscape:pagecheckerboard="0"
     inkscape:deskcolor="#d1d1d1"
     showgrid="false"
     inkscape:zoom="1.6542969"
     inkscape:cx="210.36127"
     inkscape:cy="257.51121"
     inkscape:window-width="1920"
     inkscape:window-height="1027"
     inkscape:window-x="-8"
     inkscape:window-y="-8"
     inkscape:window-maximized="1"
     inkscape:current-layer="Layer_1" /><g
     id="g6"
     transform="matrix(0.11370465,0,0,0.1125,-2.1083699,-1.7999976)"><path
       d="m 264.734,299.724 h 10.147 l 0.012,3.133 c 2.409,32.066 17.285,64.304 45.334,77.975 -3.602,7.382 -9.933,13.072 -18.003,15.564 -7.975,2.457 -39.453,9.363 -39.453,9.363 v 0 c -0.006,0 -0.024,0.006 -0.03,0.006 l -0.024,0.006 v 0 c -4.7,1.038 -44.289,10.77 -48.936,43.281 -2.658,18.573 -5.762,36.208 -5.768,36.255 -0.469,2.646 0.267,5.376 1.994,7.441 1.733,2.065 4.29,3.252 6.984,3.252 h 267.35 c 2.694,0 5.251,-1.187 6.978,-3.252 1.733,-2.065 2.468,-4.794 2,-7.441 -0.012,-0.047 -3.115,-17.683 -5.774,-36.255 -4.652,-32.6 -44.456,-42.296 -48.983,-43.293 v 0 c 0,0 -31.478,-6.907 -39.453,-9.363 -7.844,-2.421 -14.093,-7.856 -17.896,-15.487 28.173,-13.648 43.12,-46.081 45.559,-78.741 v -2.445 h 9.826 c 5.032,0 9.114,-4.082 9.114,-9.114 0,-5.032 -4.082,-9.114 -9.114,-9.114 h -6.147 l -0.718,-7.215 c -2.284,-23.094 -18.151,-42.296 -40.415,-48.894 l -10.443,-3.097 v -2.753 c 0,-5.032 -4.082,-9.114 -9.114,-9.114 H 331.72 c -5.026,0 -9.102,4.071 -9.114,9.09 l -0.006,2.73 -10.728,3.18 c -22.168,6.586 -38.023,25.693 -40.385,48.68 l -0.76,7.393 h -5.993 c -5.038,0 -9.114,4.082 -9.114,9.114 0,5.032 4.076,9.115 9.114,9.115 z m 21.456,119.505 14.906,58.542 h -36.801 v -53.57 c 1.424,-0.409 16.769,-3.797 21.895,-4.972 z m -54.364,32.41 c 1.234,-8.651 7.423,-14.917 14.241,-19.332 v 45.464 h -18.288 c 1.139,-6.906 2.652,-16.388 4.047,-26.132 z m 88.074,26.133 -16.003,-62.88 c 1.341,-0.374 7.981,-2.593 10.01,-3.542 l 31.378,25.337 c 1.667,1.353 3.697,2.029 5.726,2.029 2.035,0 4.071,-0.676 5.744,-2.041 l 30.98,-25.159 c 1.928,0.884 8.396,3.014 9.755,3.388 l -15.434,62.868 z m 117.132,-53.57 v 53.57 h -36.208 l 14.372,-58.53 c 5.115,1.168 20.418,4.55 21.836,4.96 z m 32.475,27.437 c 1.388,9.743 2.908,19.225 4.047,26.132 H 455.26 v -45.458 c 6.824,4.409 13.013,10.681 14.247,19.326 z m -97.022,-51.22 -21.492,17.457 -21.973,-17.748 c 3.572,-3.958 6.503,-8.568 8.699,-13.701 4.177,0.742 8.497,1.246 13.102,1.246 4.456,0 8.645,-0.481 12.71,-1.181 2.183,5.187 5.215,9.881 8.954,13.927 z m -21.664,-30.974 c -36.362,0 -55.207,-34.131 -57.723,-67.277 v -2.445 h 115.465 l 0.006,1.756 c -2.547,33.835 -21.392,67.966 -57.748,67.966 z m 33.318,-126.59 c 15.125,4.486 25.901,17.528 27.455,33.229 l 0.534,5.412 H 378.875 V 241.295 Z M 360.647,228.65 v 52.846 h -19.943 l 0.113,-52.846 z m -71.027,47.315 c 1.602,-15.618 12.378,-28.601 27.438,-33.075 l 5.501,-1.632 -0.083,40.237 H 289.05 Z"
       id="path2" /><path
       d="m 22.958,17.895 c -3.121,2.207 -4.759,5.934 -4.355,8.782 l 7.061,345.011 1.905,2.397 c 3.127,3.952 3.169,4.011 91.528,13.387 l -3.519,29.977 c -0.552,4.711 1.507,9.328 5.376,12.046 12.508,8.77 26.358,13.203 39.026,13.114 33.02,-0.233 35.507,-17.445 35.507,-17.445 0,0 43.638,-340.914 40.967,-355.895 C 234.058,55.834 223.566,45.866 211.342,41.084 164.205,22.618 44.094,16.768 30.88,16.174 c -2.73,-0.498 -5.584,0.072 -7.922,1.721 z m 155.078,399.934 c -8.966,9.316 -27.663,8.687 -43.975,-1.507 l 35.187,-299.689 c 0.142,-1.151 0.801,-1.78 1.335,-2.112 0.504,-0.309 1.549,-0.736 2.937,-0.237 13.327,4.937 29.443,6.337 42.07,2.124 z m 26.66,-359.774 c 9.411,3.691 12.809,11.781 14.223,16.199 3.049,9.528 -1.472,19.261 -2.546,20.685 -4.462,5.981 -20.21,8.283 -36.528,2.255 -6.29,-2.338 -13.137,-1.673 -18.786,1.78 -5.542,3.406 -9.15,9.067 -9.909,15.535 L 121.22,369.363 C 95.379,366.61 58.726,362.575 43.66,360.629 L 36.95,34.735 c 28.725,1.543 128.352,7.892 167.746,23.32 z"
       id="path4" /></g></svg>
