<?xml version="1.0" encoding="UTF-8" standalone="no"?>
<!-- Generator: Adobe Illustrator 18.0.0, SVG Export Plug-In . SVG Version: 6.00 Build 0)  -->

<svg
   version="1.1"
   id="Capa_1"
   x="0px"
   y="0px"
   viewBox="0 0 46 60"
   xml:space="preserve"
   sodipodi:docname="dismantling.svg"
   width="46"
   height="60"
   inkscape:version="1.2.1 (9c6d41e410, 2022-07-14)"
   xmlns:inkscape="http://www.inkscape.org/namespaces/inkscape"
   xmlns:sodipodi="http://sodipodi.sourceforge.net/DTD/sodipodi-0.dtd"
   xmlns="http://www.w3.org/2000/svg"
   xmlns:svg="http://www.w3.org/2000/svg"><defs
   id="defs43" /><sodipodi:namedview
   id="namedview41"
   pagecolor="#ffffff"
   bordercolor="#000000"
   borderopacity="0.25"
   inkscape:showpageshadow="2"
   inkscape:pageopacity="0.0"
   inkscape:pagecheckerboard="0"
   inkscape:deskcolor="#d1d1d1"
   showgrid="false"
   inkscape:zoom="1.8137045"
   inkscape:cx="211.72137"
   inkscape:cy="234.87839"
   inkscape:window-width="1920"
   inkscape:window-height="1027"
   inkscape:window-x="-8"
   inkscape:window-y="-8"
   inkscape:window-maximized="1"
   inkscape:current-layer="Capa_1" />
<g
   id="g8"
   transform="matrix(0.1372573,0,0,0.12847966,-9.0496479,0)">
	<path
   d="m 393.569,364.937 h -90.69 c -4.143,0 -7.5,3.358 -7.5,7.5 v 0.072 l -6.826,-3.656 v -9.775 h 95.102 c 4.143,0 7.5,-3.358 7.5,-7.5 V 183.8 c 0,-4.142 -3.357,-7.5 -7.5,-7.5 h -35.182 l -3.726,-20.163 C 344.09,152.581 340.988,150 337.372,150 h -23.58 c -3.616,0 -6.718,2.581 -7.375,6.137 l -3.726,20.163 h -35.182 c -4.143,0 -7.5,3.358 -7.5,7.5 v 54.17 h -7.673 v -71.401 c 0,-4.142 -3.357,-7.5 -7.5,-7.5 h -8.445 V 151.5 c 0,-11.855 -9.645,-21.5 -21.5,-21.5 h -0.004 v -9 h 10.5 c 2.122,0 4.145,-0.899 5.566,-2.474 1.421,-1.575 2.11,-3.678 1.895,-5.789 L 226.433,50 h 13.458 c 4.143,0 7.5,-3.358 7.5,-7.5 v -25 c 0,-4.142 -3.357,-7.5 -7.5,-7.5 H 222.343 L 222.01,6.737 C 221.618,2.91 218.395,0 214.548,0 h -57.321 c -3.847,0 -7.069,2.91 -7.461,6.737 L 149.432,10 h -17.541 c -4.143,0 -7.5,3.358 -7.5,7.5 v 25 c 0,4.142 3.357,7.5 7.5,7.5 h 13.451 l -6.416,62.737 c -0.216,2.111 0.473,4.215 1.895,5.79 1.422,1.575 3.444,2.474 5.566,2.474 h 10.5 v 9 h -0.006 c -11.85,0 -21.49,9.645 -21.49,21.5 v 7.569 h -8.452 c -4.143,0 -7.5,3.358 -7.5,7.5 v 71.401 H 83.343 c -4.143,0 -7.5,3.358 -7.5,7.5 l 0.004,106.108 c 0,4.142 3.357,7.5 7.5,7.5 h 95.101 v 9.775 l -6.826,3.656 v -0.072 c 0,-4.142 -3.357,-7.5 -7.5,-7.5 h -90.69 c -4.143,0 -7.5,3.358 -7.5,7.5 V 459.5 c 0,4.142 3.357,7.5 7.5,7.5 h 90.69 c 4.143,0 7.5,-3.358 7.5,-7.5 V 439.566 H 295.379 V 459.5 c 0,4.142 3.357,7.5 7.5,7.5 h 90.69 c 4.143,0 7.5,-3.358 7.5,-7.5 v -87.063 c 0,-4.142 -3.358,-7.5 -7.5,-7.5 z M 320.033,165 h 11.098 l 2.088,11.3 h -15.273 z m -45.024,26.3 h 101.145 v 131.44 21.338 H 275.009 Z M 232.391,25 v 10 h -7.492 l -1.022,-10 z m -93,10 V 25 h 8.507 l -1.022,10 z M 164,15 h 43.776 l 9.306,91 h -62.389 z m 35.887,106 v 18.922 h -28 V 121 Z m -49.496,30.5 c 0,-3.584 2.911,-6.5 6.49,-6.5 h 0.006 v 2.422 c 0,4.142 3.357,7.5 7.5,7.5 h 43 c 4.143,0 7.5,-3.358 7.5,-7.5 V 145 h 0.004 c 3.584,0 6.5,2.916 6.5,6.5 v 7.569 h -71 z m 86.945,22.569 v 119.222 h -8.102 v -16.08 c 0,-4.142 -3.357,-7.5 -7.5,-7.5 h -24.297 c -4.143,0 -7.5,3.358 -7.5,7.5 v 16.08 h -8.101 v -16.08 c 0,-4.142 -3.357,-7.5 -7.5,-7.5 H 150.04 c -4.143,0 -7.5,3.358 -7.5,7.5 v 16.08 h -8.101 V 214 h 67.992 c 4.143,0 7.5,-3.358 7.5,-7.5 0,-4.142 -3.357,-7.5 -7.5,-7.5 H 134.439 V 174.069 Z M 90.843,252.97 h 28.596 v 47.821 c 0,4.142 3.357,7.5 7.5,7.5 h 23.101 c 4.143,0 7.5,-3.358 7.5,-7.5 v -16.08 h 9.298 v 16.08 c 0,4.142 3.357,7.5 7.5,7.5 h 23.101 c 4.143,0 7.5,-3.358 7.5,-7.5 v -16.08 h 9.297 v 16.08 c 0,4.142 3.357,7.5 7.5,7.5 h 23.102 c 4.143,0 7.5,-3.358 7.5,-7.5 V 252.97 h 7.673 v 62.268 H 90.843 Z m 0.004,77.268 h 169.162 v 13.84 H 90.847 Z m 182.705,28.84 v 6.766 h -80.104 v -6.766 z M 156.622,452 h -75.69 v -72.063 h 75.69 z m 15,-27.434 v -35.041 l 16.208,-8.682 h 91.341 l 16.208,8.682 v 35.041 z M 386.069,452 h -75.69 v -72.063 h 75.69 z"
   id="path2" />
	<path
   d="m 216.503,209.369 c 2.462,5.844 10.983,6.134 13.704,0.335 1.311,-2.795 0.768,-6.164 -1.366,-8.393 -2.3,-2.403 -6.011,-2.979 -8.943,-1.421 -3.341,1.776 -4.876,5.977 -3.395,9.479 0.19,0.45 -0.19,-0.45 0,0 z"
   id="path4" />
	<path
   d="m 289.509,330.24 h 72.145 c 4.143,0 7.5,-3.358 7.5,-7.5 V 205.8 c 0,-4.142 -3.357,-7.5 -7.5,-7.5 h -72.145 c -4.143,0 -7.5,3.358 -7.5,7.5 v 116.94 c 0,4.142 3.358,7.5 7.5,7.5 z m 7.5,-116.94 h 57.145 v 101.94 h -57.145 z"
   id="path6" />
</g>
<g
   id="g10">
</g>
<g
   id="g12">
</g>
<g
   id="g14">
</g>
<g
   id="g16">
</g>
<g
   id="g18">
</g>
<g
   id="g20">
</g>
<g
   id="g22">
</g>
<g
   id="g24">
</g>
<g
   id="g26">
</g>
<g
   id="g28">
</g>
<g
   id="g30">
</g>
<g
   id="g32">
</g>
<g
   id="g34">
</g>
<g
   id="g36">
</g>
<g
   id="g38">
</g>
</svg>
