<?xml version="1.0" encoding="UTF-8" standalone="no"?>
<!-- Generator: Adobe Illustrator 19.0.0, SVG Export Plug-In . SVG Version: 6.00 Build 0)  -->

<svg
   version="1.1"
   id="Layer_1"
   x="0px"
   y="0px"
   viewBox="0 0 54 54"
   xml:space="preserve"
   sodipodi:docname="installation power supply networks.svg"
   width="54"
   height="54"
   inkscape:version="1.2.1 (9c6d41e410, 2022-07-14)"
   xmlns:inkscape="http://www.inkscape.org/namespaces/inkscape"
   xmlns:sodipodi="http://sodipodi.sourceforge.net/DTD/sodipodi-0.dtd"
   xmlns="http://www.w3.org/2000/svg"
   xmlns:svg="http://www.w3.org/2000/svg"><defs
   id="defs51" /><sodipodi:namedview
   id="namedview49"
   pagecolor="#ffffff"
   bordercolor="#000000"
   borderopacity="0.25"
   inkscape:showpageshadow="2"
   inkscape:pageopacity="0.0"
   inkscape:pagecheckerboard="0"
   inkscape:deskcolor="#d1d1d1"
   showgrid="false"
   inkscape:zoom="1.7076613"
   inkscape:cx="210.22904"
   inkscape:cy="248.87839"
   inkscape:window-width="1920"
   inkscape:window-height="1027"
   inkscape:window-x="-8"
   inkscape:window-y="-8"
   inkscape:window-maximized="1"
   inkscape:current-layer="Layer_1" />
<g
   id="g16"
   transform="scale(0.10887097)">
	<g
   id="g14">
		<g
   id="g12">
			<path
   d="M 414.56,319.488 352,305.584 V 285.816 C 376.176,268.368 392,240.024 392,208 v -42.648 c 1.656,-1.64 3.216,-3.392 4.552,-5.352 H 408 h 8 16 V 144 H 416 V 128 C 416,70.76 374.664,21.328 318.952,10.472 316.696,4.376 310.872,0 304,0 H 288 C 281.128,0 275.304,4.376 273.048,10.472 217.336,21.328 176,70.76 176,128 v 16 h -16 v 16 h 16 8 11.448 c 1.344,1.96 2.896,3.72 4.552,5.36 V 208 c 0,32.024 15.824,60.368 40,77.816 v 19.768 l -62.56,13.904 C 129.488,330.144 96,371.888 96,421.008 V 496 h 400 v -74.992 c 0,-49.12 -33.488,-90.864 -81.44,-101.52 z M 176,480 h -64 v -58.992 c 0,-39.856 26.088,-73.904 64,-84.592 z m 179.872,-157.168 -29.88,39.848 -21.816,-21.816 40.864,-20.432 z m -59.872,4.224 -40,-20 V 295.16 c 12.192,5.616 25.712,8.84 40,8.84 14.288,0 27.808,-3.224 40,-8.84 v 11.896 z M 207.152,148.424 204.944,144 H 192 V 128 C 192,79.8 225.8,37.896 272,26.936 V 64 h 16 V 16 h 16 v 48 h 16 V 26.936 C 366.2,37.896 400,79.8 400,128 v 16 h -12.944 l -2.208,4.424 C 381.272,155.56 374.096,160 366.112,160 H 225.888 c -7.992,0 -15.168,-4.432 -18.736,-11.576 z m 8.848,26.2 c 3.168,0.88 6.48,1.376 9.888,1.376 h 140.216 c 3.408,0 6.72,-0.504 9.888,-1.376 v 28.432 l -10.688,5.344 c -9.936,4.968 -21.072,7.6 -32.184,7.6 H 320 c -1.336,0 -2.512,-0.856 -2.936,-2.12 l -2.944,-8.832 C 311.504,197.248 304.224,192 296,192 c -8.224,0 -15.504,5.248 -18.128,13.064 l -2.928,8.808 C 274.512,215.144 273.336,216 272,216 h -13.12 c -11.12,0 -22.248,-2.632 -32.192,-7.6 L 216,203.056 Z m 1.24,46.944 2.288,1.144 c 12.16,6.08 25.768,9.288 39.352,9.288 H 272 c 8.224,0 15.504,-5.248 18.128,-13.064 l 2.928,-8.808 c 0.856,-2.544 5.04,-2.536 5.88,-0.008 l 2.944,8.832 c 2.616,7.8 9.896,13.048 18.12,13.048 h 13.12 c 13.584,0 27.192,-3.208 39.352,-9.288 l 2.288,-1.144 C 368.288,259.224 335.48,288 296,288 c -39.48,0 -72.288,-28.776 -78.76,-66.432 z m 29.72,98.856 40.864,20.432 -21.816,21.816 -29.88,-39.848 z M 288,480 h -96 v -16 h 96 z m 0,-32 H 192 V 332.64 L 218.984,326.648 288,418.664 Z M 275.704,375.6 296,355.312 316.296,375.608 296,402.664 Z M 400,480 h -96 v -16 h 96 z m 0,-32 h -96 v -29.336 l 69.016,-92.024 26.984,6 z m 80,32 H 416 V 336.416 c 37.912,10.688 64,44.744 64,84.592 z"
   id="path2" />
			<path
   d="m 376,128 h -48.208 c 5.08,-6.704 8.208,-14.96 8.208,-24 0,-22.056 -17.944,-40 -40,-40 -22.056,0 -40,17.944 -40,40 0,9.04 3.128,17.296 8.208,24 H 216 v 16 h 160 z m -80,0 c -13.232,0 -24,-10.768 -24,-24 0,-13.232 10.768,-24 24,-24 13.232,0 24,10.768 24,24 0,13.232 -10.768,24 -24,24 z"
   id="path4" />
			<rect
   x="320"
   y="416"
   width="64"
   height="16"
   id="rect6" />
			<path
   d="m 120,248 v -1.352 c 0,-5.808 -1.576,-11.504 -4.56,-16.464 L 88,184.448 60.56,230.176 C 57.576,235.152 56,240.84 56,246.648 V 248 c 0,17.648 14.352,32 32,32 17.648,0 32,-14.352 32,-32 z m -48,0 v -1.352 c 0,-2.904 0.792,-5.744 2.28,-8.232 L 88,215.552 l 13.72,22.872 c 1.488,2.48 2.28,5.32 2.28,8.224 V 248 c 0,8.824 -7.176,16 -16,16 -8.824,0 -16,-7.176 -16,-16 z"
   id="path8" />
			<path
   d="m 112,328 v -20.176 c 2.384,-0.84 4.712,-1.808 6.984,-2.888 l 14.272,14.264 33.936,-33.944 -14.264,-14.272 c 1.08,-2.272 2.048,-4.608 2.888,-6.984 H 176 v -48 h -20.176 c -0.84,-2.376 -1.816,-4.712 -2.888,-6.984 L 167.2,194.744 133.264,160.8 118.992,175.064 c -2.272,-1.08 -4.6,-2.048 -6.984,-2.888 V 152 H 64 v 20.176 c -2.384,0.84 -4.712,1.808 -6.984,2.888 L 42.744,160.8 8.808,194.744 23.072,209.016 c -1.08,2.272 -2.048,4.608 -2.896,6.984 H 0 v 48 h 20.176 c 0.84,2.376 1.816,4.712 2.888,6.984 L 8.8,285.256 42.736,319.2 57.008,304.936 c 2.28,1.072 4.608,2.04 6.992,2.888 V 328 Z m -52.392,-39.8 -5.344,-3.16 -11.52,11.52 -11.312,-11.32 11.52,-11.52 -3.152,-5.336 c -2.648,-4.48 -4.656,-9.328 -5.968,-14.4 L 32.288,248 H 16 v -16 h 16.288 l 1.544,-6 c 1.312,-5.072 3.32,-9.92 5.968,-14.4 l 3.152,-5.336 -11.52,-11.52 11.312,-11.32 11.52,11.52 5.344,-3.16 c 4.472,-2.64 9.312,-4.64 14.392,-5.952 l 6,-1.536 V 168 h 16 v 16.296 l 6,1.544 c 5.08,1.312 9.92,3.312 14.392,5.952 l 5.344,3.16 11.52,-11.52 11.312,11.32 -11.52,11.52 3.152,5.336 c 2.648,4.48 4.656,9.328 5.968,14.4 L 143.712,232 H 160 v 16 h -16.288 l -1.544,6 c -1.312,5.072 -3.32,9.92 -5.968,14.4 l -3.152,5.336 11.52,11.52 -11.312,11.32 -11.52,-11.52 -5.344,3.16 c -4.472,2.64 -9.312,4.64 -14.392,5.952 l -6,1.536 V 312 H 80 v -16.296 l -6,-1.544 c -5.08,-1.32 -9.92,-3.32 -14.392,-5.96 z"
   id="path10" />
		</g>
	</g>
</g>
<g
   id="g18">
</g>
<g
   id="g20">
</g>
<g
   id="g22">
</g>
<g
   id="g24">
</g>
<g
   id="g26">
</g>
<g
   id="g28">
</g>
<g
   id="g30">
</g>
<g
   id="g32">
</g>
<g
   id="g34">
</g>
<g
   id="g36">
</g>
<g
   id="g38">
</g>
<g
   id="g40">
</g>
<g
   id="g42">
</g>
<g
   id="g44">
</g>
<g
   id="g46">
</g>
</svg>
