<?xml version="1.0" encoding="UTF-8" standalone="no"?>
<!-- Generator: Adobe Illustrator 19.0.0, SVG Export Plug-In . SVG Version: 6.00 Build 0)  -->

<svg
   version="1.1"
   id="Layer_1"
   x="0px"
   y="0px"
   viewBox="0 0 24 60"
   xml:space="preserve"
   sodipodi:docname="landscaping.svg"
   width="24"
   height="60"
   inkscape:version="1.2.1 (9c6d41e410, 2022-07-14)"
   xmlns:inkscape="http://www.inkscape.org/namespaces/inkscape"
   xmlns:sodipodi="http://sodipodi.sourceforge.net/DTD/sodipodi-0.dtd"
   xmlns="http://www.w3.org/2000/svg"
   xmlns:svg="http://www.w3.org/2000/svg"><defs
   id="defs47" /><sodipodi:namedview
   id="namedview45"
   pagecolor="#ffffff"
   bordercolor="#000000"
   borderopacity="0.25"
   inkscape:showpageshadow="2"
   inkscape:pageopacity="0.0"
   inkscape:pagecheckerboard="0"
   inkscape:deskcolor="#d1d1d1"
   showgrid="false"
   inkscape:zoom="1.6542969"
   inkscape:cx="232.12278"
   inkscape:cy="257.51121"
   inkscape:window-width="1920"
   inkscape:window-height="1027"
   inkscape:window-x="-8"
   inkscape:window-y="-8"
   inkscape:window-maximized="1"
   inkscape:current-layer="Layer_1" />
<g
   id="g12"
   transform="matrix(0.10937479,0,0,0.11718727,-16,0)">
	<g
   id="g10">
		<g
   id="g8">
			<path
   d="M 355.265,292.571 H 287.347 V 94.041 h 31.347 c 5.771,0 10.449,-4.679 10.449,-10.449 V 10.449 C 329.143,4.678 324.465,0 318.694,0 H 193.306 c -5.771,0 -10.449,4.678 -10.449,10.449 v 73.143 c 0,5.77 4.678,10.449 10.449,10.449 h 31.347 v 198.531 h -67.918 c -5.771,0 -10.449,4.679 -10.449,10.449 v 177.633 c 0,17.285 14.062,31.347 31.347,31.347 h 156.735 c 17.285,0 31.347,-14.062 31.347,-31.347 V 303.02 c -10e-4,-5.77 -4.679,-10.449 -10.45,-10.449 z M 203.755,73.143 V 20.898 h 104.49 v 52.245 h -31.347 c -5.771,0 -10.449,4.679 -10.449,10.449 v 208.98 H 245.551 V 83.592 c 0,-5.77 -4.678,-10.449 -10.449,-10.449 z m 141.061,407.51 c 0,5.762 -4.687,10.449 -10.449,10.449 H 177.633 c -5.762,0 -10.449,-4.687 -10.449,-10.449 V 355.265 H 313.47 V 334.367 H 167.184 v -20.898 h 67.918 41.796 67.918 z"
   id="path2" />
			<rect
   x="219.429"
   y="36.570999"
   width="73.142998"
   height="20.898001"
   id="rect4" />
			<path
   d="m 203.755,438.857 h -20.898 v 26.122 c 0,5.77 4.678,10.449 10.449,10.449 h 26.122 V 454.53 h -15.673 z"
   id="path6" />
		</g>
	</g>
</g>
<g
   id="g14">
</g>
<g
   id="g16">
</g>
<g
   id="g18">
</g>
<g
   id="g20">
</g>
<g
   id="g22">
</g>
<g
   id="g24">
</g>
<g
   id="g26">
</g>
<g
   id="g28">
</g>
<g
   id="g30">
</g>
<g
   id="g32">
</g>
<g
   id="g34">
</g>
<g
   id="g36">
</g>
<g
   id="g38">
</g>
<g
   id="g40">
</g>
<g
   id="g42">
</g>
</svg>
