<?xml version="1.0" encoding="UTF-8" standalone="no"?>
<svg
   width="54"
   height="54"
   viewBox="0 0 54 54"
   enable-background="new 0 0 512 512"
   id="Layer_1"
   version="1.1"
   xml:space="preserve"
   sodipodi:docname="multi-storey building.svg"
   inkscape:version="1.2.1 (9c6d41e410, 2022-07-14)"
   xmlns:inkscape="http://www.inkscape.org/namespaces/inkscape"
   xmlns:sodipodi="http://sodipodi.sourceforge.net/DTD/sodipodi-0.dtd"
   xmlns="http://www.w3.org/2000/svg"
   xmlns:svg="http://www.w3.org/2000/svg"><defs
     id="defs27" /><sodipodi:namedview
     id="namedview25"
     pagecolor="#ffffff"
     bordercolor="#000000"
     borderopacity="0.25"
     inkscape:showpageshadow="2"
     inkscape:pageopacity="0.0"
     inkscape:pagecheckerboard="0"
     inkscape:deskcolor="#d1d1d1"
     showgrid="false"
     inkscape:zoom="1.6542969"
     inkscape:cx="225.47343"
     inkscape:cy="257.51121"
     inkscape:window-width="1920"
     inkscape:window-height="1027"
     inkscape:window-x="-8"
     inkscape:window-y="-8"
     inkscape:window-maximized="1"
     inkscape:current-layer="Layer_1" /><g
     id="g22"
     transform="matrix(0.11249998,0,0,0.11250023,-1.7999997,-1.8001163)"><path
       d="m 325.154,219.521 -0.006,2.729 -10.728,3.18 c -22.168,6.586 -38.022,25.692 -40.384,48.679 l -0.759,7.393 h -5.993 c -5.038,0 -9.114,4.082 -9.114,9.114 0,5.032 4.076,9.114 9.114,9.114 h 10.146 l 0.012,3.133 c 2.409,32.065 17.284,64.302 45.332,77.972 -3.602,7.381 -9.933,13.072 -18.002,15.564 -7.975,2.456 -39.452,9.363 -39.452,9.363 v 0 c -0.006,0 -0.024,0.006 -0.03,0.006 l -0.024,0.006 v 0 c -4.699,1.038 -44.288,10.769 -48.934,43.279 -2.658,18.572 -5.761,36.206 -5.767,36.254 -0.469,2.646 0.267,5.376 1.994,7.441 1.733,2.065 4.29,3.252 6.984,3.252 h 267.341 c 2.694,0 5.251,-1.187 6.978,-3.252 1.733,-2.065 2.468,-4.794 2,-7.441 -0.012,-0.047 -3.115,-17.682 -5.773,-36.254 -4.652,-32.599 -44.454,-42.294 -48.981,-43.291 v 0 c 0,0 -31.477,-6.907 -39.452,-9.363 -7.844,-2.421 -14.092,-7.856 -17.896,-15.486 28.172,-13.647 43.119,-46.08 45.558,-78.738 v -2.445 h 9.826 c 5.032,0 9.114,-4.082 9.114,-9.114 0,-5.032 -4.082,-9.114 -9.114,-9.114 h -6.147 l -0.718,-7.215 c -2.284,-23.093 -18.151,-42.294 -40.413,-48.892 l -10.443,-3.097 v -2.753 c 0,-5.032 -4.082,-9.114 -9.114,-9.114 h -38.04 c -5.027,0 -9.103,4.07 -9.115,9.09 z m -32.984,56.451 c 1.602,-15.617 12.377,-28.6 27.437,-33.073 l 5.5,-1.632 -0.083,40.235 H 291.6 Z m -3.43,143.259 14.905,58.54 h -36.8 v -53.568 c 1.425,-0.409 16.769,-3.797 21.895,-4.972 z m -54.363,32.409 c 1.234,-8.651 7.423,-14.917 14.24,-19.331 v 45.463 H 230.33 c 1.14,-6.907 2.653,-16.389 4.047,-26.132 z m 88.072,26.131 -16.003,-62.878 c 1.341,-0.374 7.981,-2.593 10.01,-3.542 l 31.376,25.336 c 1.667,1.353 3.697,2.029 5.726,2.029 2.035,0 4.07,-0.676 5.744,-2.041 l 30.979,-25.158 c 1.928,0.884 8.396,3.014 9.755,3.388 l -15.433,62.866 z m 117.127,-53.568 v 53.568 H 403.37 l 14.371,-58.528 c 5.115,1.169 20.417,4.551 21.835,4.96 z m 32.474,27.437 c 1.388,9.743 2.907,19.225 4.047,26.131 h -18.293 v -45.457 c 6.824,4.409 13.012,10.681 14.246,19.326 z m -97.019,-51.218 -21.491,17.456 -21.972,-17.747 c 3.572,-3.958 6.503,-8.568 8.699,-13.701 4.177,0.742 8.497,1.246 13.101,1.246 4.456,0 8.645,-0.481 12.71,-1.181 2.183,5.187 5.215,9.88 8.953,13.927 z m -21.663,-30.973 c -36.361,0 -55.205,-34.13 -57.721,-67.274 v -2.445 h 115.46 l 0.006,1.756 c -2.545,33.833 -21.39,67.963 -57.745,67.963 z m 33.317,-126.586 c 15.125,4.486 25.9,17.528 27.454,33.228 l 0.534,5.411 h -33.251 v -40.2 z m -23.491,-14.205 v 52.844 h -19.943 l 0.113,-52.844 z"
       id="path2" /><path
       d="m 37.266,483.847 h 145.822 c 5.032,0 9.114,-4.082 9.114,-9.114 0,-5.032 -4.082,-9.114 -9.114,-9.114 H 155.746 V 60.063 c 0,-1.127 0.605,-2.136 1.614,-2.694 12.496,-6.954 46.537,-23.141 92.563,-23.141 45.469,0 79.865,16.21 92.533,23.188 1.027,0.558 1.644,1.578 1.644,2.706 v 110.814 c 0,5.032 4.082,9.114 9.114,9.114 5.032,0 9.114,-4.082 9.114,-9.114 V 60.123 c 0,-7.749 -4.242,-14.905 -11.078,-18.679 -13.914,-7.654 -51.633,-25.443 -101.327,-25.443 -50.298,0 -87.686,17.789 -101.445,25.455 -6.758,3.774 -10.959,10.906 -10.959,18.608 V 173.976 H 37.266 C 25.541,173.976 16,183.517 16,195.242 v 267.341 c 0,11.723 9.541,21.264 21.266,21.264 z M 34.228,195.241 c 0,-1.673 1.365,-3.038 3.038,-3.038 H 137.519 V 465.62 H 37.266 c -1.673,0 -3.038,-1.365 -3.038,-3.038 z"
       id="path4" /><path
       d="m 219.543,107.14 h 60.759 c 5.032,0 9.114,-4.082 9.114,-9.114 0,-5.032 -4.082,-9.114 -9.114,-9.114 h -60.759 c -5.032,0 -9.114,4.082 -9.114,9.114 0,5.032 4.083,9.114 9.114,9.114 z"
       id="path6" /><path
       d="m 219.543,180.051 h 60.759 c 5.032,0 9.114,-4.082 9.114,-9.114 0,-5.032 -4.082,-9.114 -9.114,-9.114 h -60.759 c -5.032,0 -9.114,4.082 -9.114,9.114 0.001,5.032 4.083,9.114 9.114,9.114 z"
       id="path8" /><path
       d="m 219.543,252.962 h 24.304 c 5.032,0 9.114,-4.082 9.114,-9.114 0,-5.032 -4.082,-9.114 -9.114,-9.114 h -24.304 c -5.032,0 -9.114,4.082 -9.114,9.114 0.001,5.032 4.083,9.114 9.114,9.114 z"
       id="path10" /><path
       d="m 219.543,325.873 h 24.304 c 5.032,0 9.114,-4.082 9.114,-9.114 0,-5.032 -4.082,-9.114 -9.114,-9.114 h -24.304 c -5.032,0 -9.114,4.082 -9.114,9.114 0,5.032 4.083,9.114 9.114,9.114 z"
       id="path12" /><path
       d="m 219.543,398.784 h 12.152 c 5.032,0 9.114,-4.082 9.114,-9.114 0,-5.032 -4.082,-9.114 -9.114,-9.114 h -12.152 c -5.032,0 -9.114,4.082 -9.114,9.114 0,5.032 4.083,9.114 9.114,9.114 z"
       id="path14" /><path
       d="m 73.721,265.114 h 24.304 c 5.032,0 9.114,-4.082 9.114,-9.114 0,-5.032 -4.082,-9.114 -9.114,-9.114 H 73.721 c -5.032,0 -9.114,4.082 -9.114,9.114 0,5.032 4.083,9.114 9.114,9.114 z"
       id="path16" /><path
       d="m 73.721,338.025 h 24.304 c 5.032,0 9.114,-4.082 9.114,-9.114 0,-5.032 -4.082,-9.114 -9.114,-9.114 H 73.721 c -5.032,0 -9.114,4.082 -9.114,9.114 0,5.032 4.083,9.114 9.114,9.114 z"
       id="path18" /><path
       d="m 73.721,410.936 h 24.304 c 5.032,0 9.114,-4.082 9.114,-9.114 0,-5.032 -4.082,-9.114 -9.114,-9.114 H 73.721 c -5.032,0 -9.114,4.082 -9.114,9.114 0,5.032 4.083,9.114 9.114,9.114 z"
       id="path20" /></g></svg>
