<?xml version="1.0" encoding="UTF-8" standalone="no"?>
<svg
   id="Icons"
   viewBox="0 0 14 14"
   version="1.1"
   sodipodi:docname="Instagram black.svg"
   inkscape:version="1.2.1 (9c6d41e410, 2022-07-14)"
   width="14"
   height="14"
   xmlns:inkscape="http://www.inkscape.org/namespaces/inkscape"
   xmlns:sodipodi="http://sodipodi.sourceforge.net/DTD/sodipodi-0.dtd"
   xmlns="http://www.w3.org/2000/svg"
   xmlns:svg="http://www.w3.org/2000/svg">
  <sodipodi:namedview
     id="namedview10"
     pagecolor="#ffffff"
     bordercolor="#000000"
     borderopacity="0.25"
     inkscape:showpageshadow="2"
     inkscape:pageopacity="0.0"
     inkscape:pagecheckerboard="0"
     inkscape:deskcolor="#d1d1d1"
     showgrid="false"
     inkscape:zoom="3.9395349"
     inkscape:cx="79.70484"
     inkscape:cy="107.37308"
     inkscape:window-width="1920"
     inkscape:window-height="1027"
     inkscape:window-x="-8"
     inkscape:window-y="-8"
     inkscape:window-maximized="1"
     inkscape:current-layer="Instagram" />
  <defs
     id="defs4">
    <style
       id="style2">.cls-1{fill:#fff;fill-rule:evenodd;}</style>
  </defs>
  <g
     id="Instagram">
    <path
       id="Instagram-2"
       data-name="Instagram"
       class="cls-1"
       d="m 7,0 c 1.9009175,0 2.139816,0.007707 2.8860555,0.04238528 a 5.1183485,5.1183486 0 0 1 1.6992645,0.32495414 3.5860549,3.586055 0 0 1 2.047341,2.04733938 5.1183485,5.1183486 0 0 1 0.324954,1.695413 C 13.992293,4.8563303 14,5.0952295 14,6.996147 14,8.8970645 13.9923,9.1359636 13.95762,9.882203 a 5.1183485,5.1183486 0 0 1 -0.324954,1.699264 3.5860549,3.586055 0 0 1 -2.047341,2.047339 5.1183485,5.1183486 0 0 1 -1.695412,0.328809 C 9.1436705,13.992293 8.90477,14 7.003853,14 5.1029355,14 4.8640365,13.9923 4.1177982,13.957615 A 5.1183485,5.1183486 0 0 1 2.418532,13.632661 3.5860549,3.586055 0 0 1 0.37119264,11.58532 5.1183485,5.1183486 0 0 1 0.04238528,9.889908 C 0.00770644,9.1436706 0,8.90477 0,7.003853 0,5.1029355 0.00770644,4.8640366 0.04238528,4.1177982 A 5.1183485,5.1183486 0 0 1 0.36733942,2.418532 3.5860549,3.586055 0 0 1 2.4146788,0.36733942 5.1183485,5.1183486 0 0 1 4.1100917,0.04238528 C 4.8601836,0.00770644 5.0990825,0 7,0 Z M 9.8256885,1.3023852 C 9.0884405,1.2689908 8.8662395,1.2612844 7,1.2612844 c -1.8662385,0 -2.0910092,0.00771 -2.825688,0.0411 A 3.8866056,3.8866056 0 0 0 2.8719266,1.5412843 2.3209175,2.3209174 0 0 0 1.5412842,2.8719266 3.8866056,3.8866056 0 0 0 1.3011009,4.1717431 C 1.2677064,4.9089908 1.26,5.1311925 1.26,6.997431 c 0,1.8662396 0.00771,2.0910096 0.041101,2.825688 a 3.8866056,3.8866056 0 0 0 0.240184,1.304954 2.3209175,2.3209174 0 0 0 1.3306422,1.330644 3.8866056,3.8866056 0 0 0 1.2998165,0.240181 c 0.7372477,0.0334 0.9594498,0.0411 2.8256883,0.0411 1.8662395,0 2.0910095,-0.0077 2.8256885,-0.0411 A 3.8866056,3.8866056 0 0 0 11.128075,12.458717 2.3209175,2.3209174 0 0 0 12.458718,11.128073 3.8866056,3.8866056 0 0 0 12.6989,9.8282566 C 12.73229,9.0910096 12.74,8.8688064 12.74,7.002569 12.74,5.1363305 12.7323,4.9115596 12.6989,4.1768806 A 3.8866056,3.8866056 0 0 0 12.458717,2.8719266 2.3209175,2.3209174 0 0 0 11.128073,1.5412843 3.8866056,3.8866056 0 0 0 9.8282565,1.3023852 Z M 7,9.3337605 A 2.3337615,2.3337615 0 1 0 4.6662385,7 2.3350459,2.3350459 0 0 0 7,9.3337605 Z M 7,3.4049541 A 3.5963302,3.5963303 0 1 1 3.4036698,7.001284 3.5963302,3.5963303 0 0 1 7,3.4049541 Z m 4.57633,-0.1412844 a 0.84,0.84 0 1 1 -0.84,-0.84 0.84,0.84 0 0 1 0.84,0.84 z"
       style="fill:#000000;fill-opacity:0.9;stroke-width:0.128441" />
  </g>
</svg>
