<?xml version="1.0" encoding="UTF-8" standalone="no"?>
<svg
   id="Icons"
   viewBox="0 0 12 12"
   version="1.1"
   sodipodi:docname="Instagram.svg"
   inkscape:version="1.2.1 (9c6d41e410, 2022-07-14)"
   width="12"
   height="12"
   xmlns:inkscape="http://www.inkscape.org/namespaces/inkscape"
   xmlns:sodipodi="http://sodipodi.sourceforge.net/DTD/sodipodi-0.dtd"
   xmlns="http://www.w3.org/2000/svg"
   xmlns:svg="http://www.w3.org/2000/svg">
  <sodipodi:namedview
     id="namedview10"
     pagecolor="#ffffff"
     bordercolor="#000000"
     borderopacity="0.25"
     inkscape:showpageshadow="2"
     inkscape:pageopacity="0.0"
     inkscape:pagecheckerboard="0"
     inkscape:deskcolor="#d1d1d1"
     showgrid="false"
     inkscape:zoom="3.9395349"
     inkscape:cx="86.304604"
     inkscape:cy="107.37308"
     inkscape:window-width="1920"
     inkscape:window-height="1027"
     inkscape:window-x="-8"
     inkscape:window-y="-8"
     inkscape:window-maximized="1"
     inkscape:current-layer="Instagram" />
  <defs
     id="defs4">
    <style
       id="style2">.cls-1{fill:#fff;fill-rule:evenodd;}</style>
  </defs>
  <g
     id="Instagram">
    <path
       id="Instagram-2"
       data-name="Instagram"
       class="cls-1"
       d="M 6,0 C 7.6293578,0 7.834128,0.006606 8.4737618,0.03633024 A 4.387156,4.387156 0 0 1 9.9302745,0.31486236 3.0737614,3.0737614 0 0 1 11.685138,2.0697247 4.387156,4.387156 0 0 1 11.96367,3.5229358 C 11.993394,4.1625688 12,4.3673394 12,5.9966976 12,7.6260555 11.9934,7.8308257 11.96367,8.4704595 A 4.387156,4.387156 0 0 1 11.685138,9.9269723 3.0737614,3.0737614 0 0 1 9.9302745,11.681834 4.387156,4.387156 0 0 1 8.477064,11.96367 C 7.8374318,11.993394 7.63266,12 6.0033024,12 4.3739449,12 4.1691742,11.9934 3.5295413,11.96367 A 4.387156,4.387156 0 0 1 2.0730274,11.685138 3.0737614,3.0737614 0 0 1 0.31816512,9.9302745 4.387156,4.387156 0 0 1 0.03633024,8.477064 C 0.00660552,7.8374318 0,7.63266 0,6.0033024 0,4.3739449 0.00660552,4.1691742 0.03633024,3.5295413 A 4.387156,4.387156 0 0 1 0.31486236,2.0730274 3.0737614,3.0737614 0 0 1 2.0697247,0.31486236 4.387156,4.387156 0 0 1 3.5229358,0.03633024 C 4.1658716,0.00660552 4.3706422,0 6,0 Z M 8.4220185,1.1163302 C 7.7900917,1.0877064 7.5996337,1.0811009 6,1.0811009 c -1.599633,0 -1.7922936,0.00661 -2.4220183,0.035229 A 3.3313762,3.3313762 0 0 0 2.4616514,1.3211008 1.9893578,1.9893578 0 0 0 1.3211008,2.4616514 3.3313762,3.3313762 0 0 0 1.1152294,3.5757798 C 1.0866055,4.2077064 1.08,4.3981652 1.08,5.997798 c 0,1.5996337 0.00661,1.7922937 0.03523,2.4220185 A 3.3313762,3.3313762 0 0 0 1.3211015,9.5383485 1.9893578,1.9893578 0 0 0 2.461652,10.6789 3.3313762,3.3313762 0 0 0 3.5757805,10.88477 C 4.2077071,10.9134 4.3981658,10.92 5.9977987,10.92 c 1.5996341,0 1.7922941,-0.0066 2.4220189,-0.03523 A 3.3313762,3.3313762 0 0 0 9.5383496,10.6789 1.9893578,1.9893578 0 0 0 10.678901,9.5383485 3.3313762,3.3313762 0 0 0 10.884771,8.4242198 C 10.913394,7.7922938 10.92,7.6018342 10.92,6.002202 10.92,4.4025688 10.9134,4.2099082 10.88477,3.5801834 A 3.3313762,3.3313762 0 0 0 10.6789,2.4616514 1.9893578,1.9893578 0 0 0 9.5383485,1.3211008 3.3313762,3.3313762 0 0 0 8.4242198,1.1163302 Z M 6,8.0003662 A 2.000367,2.000367 0 1 0 3.999633,6 2.0014679,2.0014679 0 0 0 6,8.0003662 Z M 6,2.9185321 A 3.0825688,3.0825688 0 1 1 2.9174312,6.0011004 3.0825688,3.0825688 0 0 1 6,2.9185321 Z M 9.9225683,2.7974312 a 0.72,0.72 0 1 1 -0.72,-0.72 0.72,0.72 0 0 1 0.72,0.72 z"
       style="fill:#ffa500;fill-opacity:1;stroke-width:0.110092" />
  </g>
</svg>
