<?xml version="1.0" encoding="UTF-8" standalone="no"?>
<svg
   id="Icons"
   viewBox="0 0 18 12"
   version="1.1"
   sodipodi:docname="YouTube black.svg"
   inkscape:version="1.2.1 (9c6d41e410, 2022-07-14)"
   width="18"
   height="12"
   xmlns:inkscape="http://www.inkscape.org/namespaces/inkscape"
   xmlns:sodipodi="http://sodipodi.sourceforge.net/DTD/sodipodi-0.dtd"
   xmlns="http://www.w3.org/2000/svg"
   xmlns:svg="http://www.w3.org/2000/svg">
  <sodipodi:namedview
     id="namedview10"
     pagecolor="#ffffff"
     bordercolor="#000000"
     borderopacity="0.25"
     inkscape:showpageshadow="2"
     inkscape:pageopacity="0.0"
     inkscape:pagecheckerboard="0"
     inkscape:deskcolor="#d1d1d1"
     showgrid="false"
     inkscape:zoom="3.9395349"
     inkscape:cx="70.566706"
     inkscape:cy="107.37308"
     inkscape:window-width="1920"
     inkscape:window-height="1027"
     inkscape:window-x="-8"
     inkscape:window-y="-8"
     inkscape:window-maximized="1"
     inkscape:current-layer="YouTube" />
  <defs
     id="defs4">
    <style
       id="style2">.cls-1{fill:#fff;}</style>
  </defs>
  <g
     id="YouTube"
     style="fill:#6c7575;fill-opacity:1">
    <path
       id="YouTube-2"
       data-name="YouTube"
       class="cls-1"
       d="M 17.62362,1.873846 A 2.2518172,2.1446154 0 0 0 16.032487,0.3584616 C 14.630351,0 9.0008073,0 9.0008073,0 c 0,0 -5.6295429,0 -7.033294,0.3584616 A 2.2615095,2.1538461 0 0 0 0.37637985,1.873846 C 0,3.2107694 0,6 0,6 0,6 0,8.7892303 0.37637985,10.126153 A 2.2615095,2.1538461 0 0 0 1.9675133,11.641539 C 3.3712644,12 9.0008073,12 9.0008073,12 c 0,0 5.6279277,0 7.0316797,-0.358461 A 2.2518172,2.1446154 0 0 0 17.62362,10.126153 C 18,8.7892303 18,6 18,6 18,6 18,3.2107694 17.62362,1.873846 Z M 7.1996769,8.5707694 V 3.4292307 L 11.884234,6 Z"
       style="fill:#000000;fill-opacity:0.9;stroke-width:0.157645" />
  </g>
</svg>
