<?xml version="1.0" encoding="UTF-8" standalone="no"?>
<!-- Generator: Adobe Illustrator 16.0.0, SVG Export Plug-In . SVG Version: 6.00 Build 0)  -->

<svg
   version="1.1"
   id="Capa_1"
   x="0px"
   y="0px"
   width="54"
   height="30"
   viewBox="0 0 53.999997 29.999998"
   xml:space="preserve"
   sodipodi:docname="logo company.svg"
   inkscape:version="1.2.1 (9c6d41e410, 2022-07-14)"
   xmlns:inkscape="http://www.inkscape.org/namespaces/inkscape"
   xmlns:sodipodi="http://sodipodi.sourceforge.net/DTD/sodipodi-0.dtd"
   xmlns="http://www.w3.org/2000/svg"
   xmlns:svg="http://www.w3.org/2000/svg"><defs
   id="defs46" /><sodipodi:namedview
   id="namedview44"
   pagecolor="#ffffff"
   bordercolor="#000000"
   borderopacity="0.25"
   inkscape:showpageshadow="2"
   inkscape:pageopacity="0.0"
   inkscape:pagecheckerboard="0"
   inkscape:deskcolor="#d1d1d1"
   showgrid="false"
   inkscape:zoom="0.53781695"
   inkscape:cx="381.17058"
   inkscape:cy="351.42068"
   inkscape:window-width="1920"
   inkscape:window-height="1027"
   inkscape:window-x="-8"
   inkscape:window-y="-8"
   inkscape:window-maximized="1"
   inkscape:current-layer="Capa_1" />
<g
   id="g11"
   transform="matrix(0.09698174,0,0,0.09615989,0,-11.771181)"
   style="fill:#000000;fill-opacity:0.9">
	<g
   id="iconos_19_"
   style="fill:#000000;fill-opacity:0.9">
		<path
   d="m 276.257,406.13 c 11.359,-2.705 161.384,-18.752 161.384,-18.752 l 2.162,-5.21 c -11.982,-5.985 -47.479,-13.664 -83.354,-20.074 l 4.284,-17.45 -7.324,-24.978 -43.24,-8.368 -16.124,17.128 -3.288,23.407 c -5.843,-0.755 -10.967,-1.347 -15.014,-1.73 -9.936,-0.946 -25.896,-1.958 -43.509,-2.925 l 49.857,-156.615 c 30.294,-52.469 85.061,-61.163 85.061,-61.163 -52.47,-3.786 -82.494,31.808 -90.111,37.431 -0.4,0.065 -4.333,4.5 -11.974,2.312 -4.419,-1.04 -7.201,-4.064 -3.244,-10.396 12.203,-19.49 52.546,-36.328 52.546,-36.328 -40.576,-0.547 -64.02,34.023 -67.54,38.344 -3.517,4.333 -10.455,8.568 -16.438,6.577 -3.085,-1.027 -4.876,-4.627 -2.688,-8.662 3.884,-7.173 18.923,-22.709 18.923,-22.709 -37.866,14.603 -58.524,54.839 -58.524,54.839 l -54.121,151.96 H 114.004 L 0,360.5 v 18.76 c 0,0 238.203,25.61 243.613,26.688 5.402,1.079 21.285,2.887 32.644,0.182 z"
   id="path2"
   style="fill:#000000;fill-opacity:0.9" />
		<path
   d="m 547.52,417.737 c 5.814,-10.682 11.2,-24.729 8.625,-27.156 -2.569,-2.44 -28.095,-13.35 -28.095,-13.35 0,0 5.173,-35.228 5.173,-60.111 0,-24.88 -18.389,-74.378 -42.19,-106.832 -23.801,-32.454 -51.926,-56.267 -90.874,-63.84 -38.948,-7.573 -60.041,4.859 -94.126,43.26 -34.08,38.401 -54.46,149.336 -54.46,149.336 l 22.367,1.701 5.516,-25.64 22.061,-21.354 64.252,9.563 11.942,31.118 -1.779,11.017 c 25.961,3.243 85.864,20.024 85.864,20.024 0.163,4.008 -4.007,22.779 -4.007,22.779 0,0 79.755,-0.013 89.731,29.485 z"
   id="path4"
   style="fill:#000000;fill-opacity:0.9" />
		<path
   d="m 490.918,406.742 c -62.844,-6.77 -155.305,3.067 -155.305,3.067 44.435,19.747 157.933,25.419 174.677,24.488 16.744,-0.926 28.058,-2.104 26.047,-9.037 -0.009,0.013 4.536,-13.137 -45.419,-18.518 z"
   id="path6"
   style="fill:#000000;fill-opacity:0.9" />
		<path
   d="m 112.041,324.514 10.653,2.085 43.815,-127.268 h -1.624 c -22.416,18.788 -39.686,57.948 -50.164,88.222 l -0.592,0.122 -15.635,3.395 -2.868,31.013 v 4.247 l 16.418,-2.199"
   id="path8"
   style="fill:#000000;fill-opacity:0.9" />
	</g>
</g>
<g
   id="g13">
</g>
<g
   id="g15">
</g>
<g
   id="g17">
</g>
<g
   id="g19">
</g>
<g
   id="g21">
</g>
<g
   id="g23">
</g>
<g
   id="g25">
</g>
<g
   id="g27">
</g>
<g
   id="g29">
</g>
<g
   id="g31">
</g>
<g
   id="g33">
</g>
<g
   id="g35">
</g>
<g
   id="g37">
</g>
<g
   id="g39">
</g>
<g
   id="g41">
</g>
</svg>
