<?xml version="1.0" encoding="UTF-8" standalone="no"?>
<svg
   version="1.1"
   viewBox="0 0 20 20"
   enable-background="new 0 0 463 463"
   id="svg18"
   sodipodi:docname="letter grey.svg"
   inkscape:version="1.2.1 (9c6d41e410, 2022-07-14)"
   width="20"
   height="20"
   xmlns:inkscape="http://www.inkscape.org/namespaces/inkscape"
   xmlns:sodipodi="http://sodipodi.sourceforge.net/DTD/sodipodi-0.dtd"
   xmlns="http://www.w3.org/2000/svg"
   xmlns:svg="http://www.w3.org/2000/svg">
  <defs
     id="defs22" />
  <sodipodi:namedview
     id="namedview20"
     pagecolor="#ffffff"
     bordercolor="#000000"
     borderopacity="0.25"
     inkscape:showpageshadow="2"
     inkscape:pageopacity="0.0"
     inkscape:pagecheckerboard="0"
     inkscape:deskcolor="#d1d1d1"
     showgrid="false"
     inkscape:zoom="1.8293737"
     inkscape:cx="206.62809"
     inkscape:cy="231.77331"
     inkscape:window-width="1920"
     inkscape:window-height="1027"
     inkscape:window-x="-8"
     inkscape:window-y="-8"
     inkscape:window-maximized="1"
     inkscape:current-layer="svg18" />
  <g
     id="g16"
     style="fill:#6c7575;fill-opacity:1"
     transform="matrix(0.04511278,0,0,0.04319654,-0.44360896,0)">
    <g
       id="g14"
       style="fill:#6c7575;fill-opacity:1">
      <path
         d="M 428.155,193.62 391,164.205 V 15.5 C 391,6.953 384.047,0 375.5,0 H 87.5 C 78.953,0 72,6.953 72,15.5 V 164.205 L 34.845,193.62 C 33.048,195.042 32,197.208 32,199.5 v 240 c 0,12.958 10.542,23.5 23.5,23.5 h 352 c 12.958,0 23.5,-10.542 23.5,-23.5 v -240 c 0,-2.292 -1.048,-4.458 -2.845,-5.88 z M 416,439.5 c 0,0.161 -0.015,0.319 -0.024,0.478 L 273.898,327.5 416,215.003 Z m -369,0 V 215.003 L 189.102,327.5 47.024,439.978 C 47.015,439.819 47,439.661 47,439.5 Z M 261.604,318.102 c -17.725,14.032 -42.483,14.033 -60.208,0 L 172.215,295 h 118.57 z M 201.4,336.895 c 0.229,-0.182 0.463,-0.354 0.694,-0.531 9.216,4.844 19.307,7.277 29.405,7.277 10.095,0 20.188,-2.435 29.403,-7.277 0.233,0.178 0.469,0.349 0.701,0.534 L 401.943,448 H 61.057 Z M 411.417,199.5 391,215.663 V 183.336 Z M 87.5,15 h 288 c 0.276,0 0.5,0.224 0.5,0.5 V 227.538 L 309.732,280 H 153.268 L 87,227.538 v -59.543 c 0,-0.019 0,-0.037 0,-0.056 V 15.5 C 87,15.224 87.224,15 87.5,15 Z M 72,215.663 51.583,199.5 72,183.336 Z"
         id="path2"
         style="fill:#6c7575;fill-opacity:1" />
      <path
         d="m 135.5,71 h 56 c 4.142,0 7.5,-3.358 7.5,-7.5 0,-4.142 -3.358,-7.5 -7.5,-7.5 h -56 c -4.142,0 -7.5,3.358 -7.5,7.5 0,4.142 3.358,7.5 7.5,7.5 z"
         id="path4"
         style="fill:#6c7575;fill-opacity:1" />
      <path
         d="m 135.5,111 h 88 c 4.142,0 7.5,-3.358 7.5,-7.5 0,-4.142 -3.358,-7.5 -7.5,-7.5 h -88 c -4.142,0 -7.5,3.358 -7.5,7.5 0,4.142 3.358,7.5 7.5,7.5 z"
         id="path6"
         style="fill:#6c7575;fill-opacity:1" />
      <path
         d="m 176,167.5 c 0,4.142 3.358,7.5 7.5,7.5 h 96 c 4.142,0 7.5,-3.358 7.5,-7.5 0,-4.142 -3.358,-7.5 -7.5,-7.5 h -96 c -4.142,0 -7.5,3.358 -7.5,7.5 z"
         id="path8"
         style="fill:#6c7575;fill-opacity:1" />
      <path
         d="m 135.5,215 h 192 c 4.142,0 7.5,-3.358 7.5,-7.5 0,-4.142 -3.358,-7.5 -7.5,-7.5 h -192 c -4.142,0 -7.5,3.358 -7.5,7.5 0,4.142 3.358,7.5 7.5,7.5 z"
         id="path10"
         style="fill:#6c7575;fill-opacity:1" />
      <path
         d="m 135.5,255 h 192 c 4.142,0 7.5,-3.358 7.5,-7.5 0,-4.142 -3.358,-7.5 -7.5,-7.5 h -192 c -4.142,0 -7.5,3.358 -7.5,7.5 0,4.142 3.358,7.5 7.5,7.5 z"
         id="path12"
         style="fill:#6c7575;fill-opacity:1" />
    </g>
  </g>
</svg>
