<?xml version="1.0" encoding="UTF-8" standalone="no"?>
<!-- Generator: Adobe Illustrator 18.0.0, SVG Export Plug-In . SVG Version: 6.00 Build 0)  -->

<svg
   version="1.1"
   id="Capa_1"
   x="0px"
   y="0px"
   viewBox="0 0 28 28"
   xml:space="preserve"
   sodipodi:docname="phone big.svg"
   inkscape:version="1.2.1 (9c6d41e410, 2022-07-14)"
   width="28"
   height="28"
   xmlns:inkscape="http://www.inkscape.org/namespaces/inkscape"
   xmlns:sodipodi="http://sodipodi.sourceforge.net/DTD/sodipodi-0.dtd"
   xmlns="http://www.w3.org/2000/svg"
   xmlns:svg="http://www.w3.org/2000/svg"><defs
   id="defs37" /><sodipodi:namedview
   id="namedview35"
   pagecolor="#ffffff"
   bordercolor="#000000"
   borderopacity="0.25"
   inkscape:showpageshadow="2"
   inkscape:pageopacity="0.0"
   inkscape:pagecheckerboard="0"
   inkscape:deskcolor="#d1d1d1"
   showgrid="false"
   inkscape:zoom="2.0142016"
   inkscape:cx="186.67446"
   inkscape:cy="210.50524"
   inkscape:window-width="1920"
   inkscape:window-height="1027"
   inkscape:window-x="-8"
   inkscape:window-y="-8"
   inkscape:window-maximized="1"
   inkscape:current-layer="Capa_1" />
<path
   d="m 19.563705,16.961153 -2.510334,1.869916 -0.508446,1.63314 C 12.847774,18.248714 9.751356,15.152295 7.5358621,11.455144 L 9.1690006,10.946698 11.038917,8.4363638 5.0590208,0 2.23507,1.3376331 0,6.7656708 0.05746314,6.9409234 C 1.6577085,11.8193 4.4224649,16.316807 8.0528306,19.947173 c 3.6303664,3.630366 8.1278724,6.395123 13.0062464,7.99537 L 21.23433,28 26.662434,25.764929 28,22.941044 Z M 9.8044245,8.4217817 8.8756922,9.6685258 3.3746115,1.9030093 4.7289573,1.2615261 Z M 21.19591,26.935771 C 16.533073,25.37581 12.235855,22.717723 8.7591013,19.240969 5.282348,15.764215 2.6242613,11.466996 1.0643666,6.8040907 l 1.6755535,-4.0692306 5.3207011,7.5108939 -2.0122756,0.626502 0.3058932,0.539008 c 2.4238394,4.271716 5.9629832,7.810862 10.2346982,10.234702 l 0.539076,0.305893 0.626434,-2.012277 7.510893,5.320635 z m 4.901146,-2.310311 -7.765581,-5.501083 1.246745,-0.928732 7.160321,5.075469 z"
   id="path2"
   style="fill:#000000;fill-opacity:0.9;stroke-width:0.0665854" />
<g
   id="g4">
</g>
<g
   id="g6">
</g>
<g
   id="g8">
</g>
<g
   id="g10">
</g>
<g
   id="g12">
</g>
<g
   id="g14">
</g>
<g
   id="g16">
</g>
<g
   id="g18">
</g>
<g
   id="g20">
</g>
<g
   id="g22">
</g>
<g
   id="g24">
</g>
<g
   id="g26">
</g>
<g
   id="g28">
</g>
<g
   id="g30">
</g>
<g
   id="g32">
</g>
</svg>
