<?xml version="1.0" encoding="UTF-8" standalone="no"?>
<!-- Generator: Adobe Illustrator 18.0.0, SVG Export Plug-In . SVG Version: 6.00 Build 0)  -->

<svg
   version="1.1"
   id="Capa_1"
   x="0px"
   y="0px"
   viewBox="0 0 20 20"
   xml:space="preserve"
   sodipodi:docname="phone.svg"
   inkscape:version="1.2.1 (9c6d41e410, 2022-07-14)"
   width="20"
   height="20"
   xmlns:inkscape="http://www.inkscape.org/namespaces/inkscape"
   xmlns:sodipodi="http://sodipodi.sourceforge.net/DTD/sodipodi-0.dtd"
   xmlns="http://www.w3.org/2000/svg"
   xmlns:svg="http://www.w3.org/2000/svg"><defs
   id="defs37" /><sodipodi:namedview
   id="namedview35"
   pagecolor="#ffffff"
   bordercolor="#000000"
   borderopacity="0.25"
   inkscape:showpageshadow="2"
   inkscape:pageopacity="0.0"
   inkscape:pagecheckerboard="0"
   inkscape:deskcolor="#d1d1d1"
   showgrid="false"
   inkscape:zoom="2.0142016"
   inkscape:cx="193.12863"
   inkscape:cy="210.50524"
   inkscape:window-width="1920"
   inkscape:window-height="1027"
   inkscape:window-x="-8"
   inkscape:window-y="-8"
   inkscape:window-maximized="1"
   inkscape:current-layer="Capa_1" />
<path
   d="m 13.974075,12.115107 -1.793096,1.335654 -0.363176,1.166528 C 9.1769814,13.034793 6.9652543,10.823066 5.3827587,8.1822441 L 6.5492862,7.8190686 7.8849405,6.025973 3.6135863,0 1.5964786,0.95545203 0,4.8326211 0.0410451,4.9578015 c 1.1430324,3.4845534 3.1178584,6.6970585 5.7109768,9.2901765 2.5931184,2.593118 5.8056231,4.567944 9.2901761,5.710977 L 15.167379,20 19.044596,18.403521 20,16.386461 Z M 7.0031604,6.0155572 6.3397802,6.9060885 2.4104368,1.3592921 3.3778266,0.90108986 Z M 15.139936,19.239833 C 11.809338,18.125575 8.7398963,16.226942 6.256501,13.743547 3.7731057,11.260151 1.8744724,8.1907099 0.76026187,4.8600638 L 1.9570858,1.9534711 5.7575866,7.3183944 4.3202469,7.7658955 4.538742,8.1509014 c 1.7313139,3.0512256 4.2592738,5.5791856 7.310499,7.3104996 l 0.385054,0.218495 0.447453,-1.43734 5.364924,3.800453 z m 3.500819,-1.650222 -5.546844,-3.929344 0.890532,-0.66338 5.114515,3.625334 z"
   id="path2"
   style="fill:#000000;fill-opacity:0.9;stroke-width:0.047561" />
<g
   id="g4">
</g>
<g
   id="g6">
</g>
<g
   id="g8">
</g>
<g
   id="g10">
</g>
<g
   id="g12">
</g>
<g
   id="g14">
</g>
<g
   id="g16">
</g>
<g
   id="g18">
</g>
<g
   id="g20">
</g>
<g
   id="g22">
</g>
<g
   id="g24">
</g>
<g
   id="g26">
</g>
<g
   id="g28">
</g>
<g
   id="g30">
</g>
<g
   id="g32">
</g>
</svg>
