<?xml version="1.0" encoding="UTF-8" standalone="no"?>
<!-- Generator: Adobe Illustrator 19.0.0, SVG Export Plug-In . SVG Version: 6.00 Build 0)  -->

<svg
   version="1.1"
   id="Layer_1"
   x="0px"
   y="0px"
   viewBox="0 0 18 20"
   xml:space="preserve"
   sodipodi:docname="user-login.svg"
   width="18"
   height="20"
   inkscape:version="1.2.1 (9c6d41e410, 2022-07-14)"
   xmlns:inkscape="http://www.inkscape.org/namespaces/inkscape"
   xmlns:sodipodi="http://sodipodi.sourceforge.net/DTD/sodipodi-0.dtd"
   xmlns="http://www.w3.org/2000/svg"
   xmlns:svg="http://www.w3.org/2000/svg"><defs
   id="defs45" /><sodipodi:namedview
   id="namedview43"
   pagecolor="#ffffff"
   bordercolor="#000000"
   borderopacity="0.25"
   inkscape:showpageshadow="2"
   inkscape:pageopacity="0.0"
   inkscape:pagecheckerboard="0"
   inkscape:deskcolor="#d1d1d1"
   showgrid="false"
   inkscape:zoom="1.8559583"
   inkscape:cx="206.9012"
   inkscape:cy="142.78338"
   inkscape:window-width="1920"
   inkscape:window-height="1027"
   inkscape:window-x="-8"
   inkscape:window-y="-8"
   inkscape:window-maximized="1"
   inkscape:current-layer="Layer_1" />
<g
   id="g10"
   transform="matrix(0.04990739,0,0,0.04382428,-2.3880688,0)"
   style="fill:#000000;fill-opacity:0.9">
	<g
   id="g8"
   style="fill:#000000;fill-opacity:0.9">
		<g
   id="g6"
   style="fill:#000000;fill-opacity:0.9">
			<path
   d="m 324.194,220.526 c -6.172,7.772 -13.106,14.947 -21.07,21.423 45.459,26.076 76.149,75.1 76.149,131.158 0,30.29 -66.367,54.018 -151.09,54.018 -84.723,0 -151.09,-23.728 -151.09,-54.018 0,-56.058 30.69,-105.082 76.149,-131.158 -7.963,-6.476 -14.897,-13.65 -21.07,-21.423 -50.624,31.969 -84.322,88.41 -84.322,152.581 0,19.439 10.644,46.53 61.355,65.201 31.632,11.647 73.886,18.06 118.979,18.06 45.093,0 87.347,-6.413 118.979,-18.06 50.71,-18.671 61.355,-45.762 61.355,-65.201 -0.002,-64.171 -33.7,-120.612 -84.324,-152.581 z"
   id="path2"
   style="fill:#000000;fill-opacity:0.9" />
			<path
   d="m 228.182,239.795 c 56.833,0 100.597,-54.936 100.597,-119.897 C 328.779,54.907 284.993,0 228.182,0 171.349,0 127.585,54.936 127.585,119.897 c 0,64.991 43.787,119.898 100.597,119.898 z m 0,-210.552 c 39.344,0 71.354,40.667 71.354,90.654 0,49.987 -32.01,90.654 -71.354,90.654 -39.344,0 -71.354,-40.667 -71.354,-90.654 0,-49.987 32.01,-90.654 71.354,-90.654 z"
   id="path4"
   style="fill:#000000;fill-opacity:0.9" />
		</g>
	</g>
</g>
<g
   id="g12">
</g>
<g
   id="g14">
</g>
<g
   id="g16">
</g>
<g
   id="g18">
</g>
<g
   id="g20">
</g>
<g
   id="g22">
</g>
<g
   id="g24">
</g>
<g
   id="g26">
</g>
<g
   id="g28">
</g>
<g
   id="g30">
</g>
<g
   id="g32">
</g>
<g
   id="g34">
</g>
<g
   id="g36">
</g>
<g
   id="g38">
</g>
<g
   id="g40">
</g>
</svg>
